<?xml version="1.0" encoding="utf-8"?>
<!-- Generator: Adobe Illustrator 16.0.0, SVG Export Plug-In . SVG Version: 6.00 Build 0)  -->
<!DOCTYPE svg PUBLIC "-//W3C//DTD SVG 1.1//EN" "http://www.w3.org/Graphics/SVG/1.1/DTD/svg11.dtd">
<svg version="1.1" id="Layer_1" xmlns="http://www.w3.org/2000/svg" xmlns:xlink="http://www.w3.org/1999/xlink" x="0px" y="0px"
	 width="40px" height="30px" viewBox="0 0 40 30" enable-background="new 0 0 40 30" xml:space="preserve">
<g>
	<path fill="#FFFFFF" d="M36.25,0H3.75C1.683,0,0,1.683,0,3.75v22.5C0,28.318,1.683,30,3.75,30h32.5c2.068,0,3.75-1.682,3.75-3.75
		V3.75C40,1.683,38.318,0,36.25,0L36.25,0z M36.25,2.5c0.169,0,0.331,0.035,0.479,0.097L20,17.096L3.271,2.597
		C3.419,2.535,3.58,2.5,3.75,2.5H36.25z M36.25,27.5H3.75c-0.689,0-1.25-0.561-1.25-1.25V5.238l16.681,14.458
		C19.417,19.898,19.708,20,20,20s0.583-0.102,0.818-0.305L37.5,5.238V26.25C37.5,26.939,36.939,27.5,36.25,27.5L36.25,27.5z"/>
</g>
</svg>
