<?xml version="1.0" encoding="utf-8"?>
<!-- Generator: Adobe Illustrator 16.0.0, SVG Export Plug-In . SVG Version: 6.00 Build 0)  -->
<!DOCTYPE svg PUBLIC "-//W3C//DTD SVG 1.1//EN" "http://www.w3.org/Graphics/SVG/1.1/DTD/svg11.dtd">
<svg version="1.1" id="Layer_1" xmlns="http://www.w3.org/2000/svg" xmlns:xlink="http://www.w3.org/1999/xlink" x="0px" y="0px"
	 width="30px" height="30px" viewBox="0 0 30 30" enable-background="new 0 0 30 30" xml:space="preserve">
<g>
	<path fill="#FED136" d="M29.336,23.573L24.76,19.01c-0.914-0.904-2.422-0.876-3.365,0.064l-2.307,2.297
		c-0.145-0.079-0.295-0.163-0.455-0.252c-1.457-0.805-3.447-1.905-5.547-3.997c-2.104-2.096-3.21-4.086-4.018-5.539
		c-0.088-0.152-0.169-0.3-0.248-0.442l1.547-1.54l0.762-0.759C12.072,7.9,12.1,6.396,11.19,5.49L6.611,0.928
		C5.703,0.021,4.193,0.049,3.246,0.992L1.958,2.284L1.99,2.319c-0.431,0.55-0.791,1.185-1.06,1.868
		C0.682,4.839,0.527,5.46,0.458,6.082c-0.606,4.993,1.685,9.557,7.897,15.749c8.588,8.558,15.512,7.913,15.811,7.88
		c0.648-0.077,1.273-0.232,1.906-0.477c0.682-0.266,1.316-0.625,1.867-1.055l0.026,0.025l1.31-1.277
		C30.217,25.986,30.246,24.482,29.336,23.573L29.336,23.573z"/>
</g>
</svg>
